<svg width="52" height="52" viewBox="0 0 52 52" fill="none" xmlns="http://www.w3.org/2000/svg">
<path d="M40.4006 6.8C40.4006 9.45097 42.5496 11.6 45.2006 11.6C47.8515 11.6 50.0006 9.45097 50.0006 6.8C50.0006 4.14903 47.8515 2 45.2006 2C42.5496 2 40.4006 4.14903 40.4006 6.8ZM40.4006 6.8H12.4994M40.4006 45.2C40.4006 47.851 42.5496 50 45.2006 50C47.8515 50 50.0006 47.851 50.0006 45.2C50.0006 42.549 47.8515 40.4 45.2006 40.4C42.5496 40.4 40.4006 42.549 40.4006 45.2ZM40.4006 45.2H26.6006C25.2751 45.2 24.2006 44.1255 24.2006 42.8V9.2M39.5006 26H24.5006M50.0006 26C50.0006 28.651 47.8515 30.8 45.2006 30.8C42.5496 30.8 40.4006 28.651 40.4006 26C40.4006 23.349 42.5496 21.2 45.2006 21.2C47.8515 21.2 50.0006 23.349 50.0006 26ZM11.5994 6.8C11.5994 9.45097 9.45036 11.6 6.79939 11.6C4.14842 11.6 1.99939 9.45097 1.99939 6.8C1.99939 4.14903 4.14842 2 6.79939 2C9.45036 2 11.5994 4.14903 11.5994 6.8Z" stroke="#C24B4B" stroke-width="3.33" stroke-linecap="round"/>
</svg>
