<svg width="49" height="54" viewBox="0 0 49 54" fill="none" xmlns="http://www.w3.org/2000/svg">
<path d="M42.2634 6.01747C41.6131 5.36725 40.5589 5.36725 39.9087 6.01747C39.2585 6.6677 39.2585 7.72191 39.9087 8.37214L42.2634 6.01747ZM45.7529 14.2163C46.4031 14.8665 47.4573 14.8665 48.1075 14.2163C48.7577 13.5661 48.7577 12.5119 48.1075 11.8616L45.7529 14.2163ZM25.2186 21.6023C25.2186 20.6827 24.4731 19.9373 23.5536 19.9373C22.634 19.9373 21.8886 20.6827 21.8886 21.6023H25.2186ZM21.8886 30.0438C21.8886 30.9634 22.634 31.7088 23.5536 31.7088C24.4731 31.7088 25.2186 30.9634 25.2186 30.0438H21.8886ZM17.0601 0.335C16.1405 0.335 15.3951 1.08045 15.3951 2C15.3951 2.91955 16.1405 3.665 17.0601 3.665V0.335ZM29.3977 3.665C30.3173 3.665 31.0627 2.91955 31.0627 2C31.0627 1.08045 30.3173 0.335 29.3977 0.335V3.665ZM37.9607 13.8097C37.3104 14.4599 37.3104 15.5141 37.9607 16.1643C38.6109 16.8146 39.6651 16.8146 40.3153 16.1643L37.9607 13.8097ZM44.0081 10.1169L45.1854 8.93955L44.0081 10.1169ZM21.8886 21.6023V30.0438H25.2186V21.6023H21.8886ZM17.0601 3.665H29.3977V0.335H17.0601V3.665ZM40.3153 16.1643L45.1854 11.2942L42.8308 8.93955L37.9607 13.8097L40.3153 16.1643ZM43.3171 30.5714C43.3171 41.4865 34.4687 50.335 23.5536 50.335V53.665C36.3078 53.665 46.6471 43.3257 46.6471 30.5714H43.3171ZM23.5536 50.335C12.6385 50.335 3.79 41.4865 3.79 30.5714H0.46C0.46 43.3257 10.7993 53.665 23.5536 53.665V50.335ZM3.79 30.5714C3.79 19.6563 12.6385 10.8079 23.5536 10.8079V7.47786C10.7993 7.47786 0.46 17.8172 0.46 30.5714H3.79ZM23.5536 10.8079C34.4687 10.8079 43.3171 19.6563 43.3171 30.5714H46.6471C46.6471 17.8172 36.3078 7.47786 23.5536 7.47786V10.8079ZM25.1353 32.6412C25.1353 33.5148 24.4271 34.223 23.5536 34.223V37.553C26.2663 37.553 28.4653 35.3539 28.4653 32.6412H25.1353ZM23.5536 34.223C22.68 34.223 21.9718 33.5148 21.9718 32.6412H18.6418C18.6418 35.3539 20.8409 37.553 23.5536 37.553V34.223ZM21.9718 32.6412C21.9718 31.7677 22.68 31.0595 23.5536 31.0595V27.7295C20.8409 27.7295 18.6418 29.9285 18.6418 32.6412H21.9718ZM23.5536 31.0595C24.4271 31.0595 25.1353 31.7677 25.1353 32.6412H28.4653C28.4653 29.9285 26.2663 27.7295 23.5536 27.7295V31.0595ZM39.9087 8.37214L42.8308 11.2942L45.1854 8.93955L42.2634 6.01747L39.9087 8.37214ZM42.8308 11.2942L45.7529 14.2163L48.1075 11.8616L45.1854 8.93955L42.8308 11.2942Z" fill="#C24B4B"/>
</svg>
