<svg width="53" height="53" viewBox="0 0 53 53" fill="none" xmlns="http://www.w3.org/2000/svg">
<path d="M26 34.5001L18.5 27.0001M26 34.5001C29.4921 33.172 32.8422 31.4969 36 29.5001M26 34.5001V47.0001C26 47.0001 33.575 45.6251 36 42.0001C38.7 37.9501 36 29.5001 36 29.5001M18.5 27.0001C19.8304 23.5487 21.5055 20.2403 23.5 17.1251C26.413 12.4676 30.4691 8.63275 35.2825 5.98536C40.0959 3.33797 45.5067 1.96606 51 2.00013C51 8.80013 49.05 20.7501 36 29.5001M18.5 27.0001H6C6 27.0001 7.375 19.4251 11 17.0001C15.05 14.3001 23.5 17.0001 23.5 17.0001M7.25 38.2501C3.5 41.4001 2.25 50.7501 2.25 50.7501C2.25 50.7501 11.6 49.5001 14.75 45.7501C16.525 43.6501 16.5 40.4251 14.525 38.4751C13.5533 37.5477 12.2732 37.0117 10.9306 36.9702C9.5879 36.9287 8.27719 37.3845 7.25 38.2501Z" stroke="#C24B4B" stroke-width="3.33333" stroke-linecap="round" stroke-linejoin="round"/>
</svg>
