<svg width="60" height="60" viewBox="0 0 60 60" fill="none" xmlns="http://www.w3.org/2000/svg">
<circle cx="24.5" cy="18.5" r="6.5" fill="#C24B4B" fill-opacity="0.12"/>
<path d="M6 45C6 38.3726 11.3726 33 18 33H31C37.6274 33 43 38.3726 43 45V49H6V45Z" fill="#C24B4B" fill-opacity="0.12"/>
<path d="M48 34.2139C51.1683 36.5811 54 42.5413 54 46.2137C54 47.3578 53.1653 48.2853 52.1356 48.2853H51M39 24.5108C41.0496 23.3252 42.4286 21.1091 42.4286 18.571C42.4286 16.0329 41.0496 13.8169 39 12.6312M7.86443 48.2853H40.707C41.7367 48.2853 42.5714 47.3578 42.5714 46.2137C42.5714 39.0222 36.5633 33.1923 24.2857 33.1923C12.0082 33.1923 6 39.0222 6 46.2137C6 47.3578 6.83473 48.2853 7.86443 48.2853ZM31.1429 18.571C31.1429 22.3581 28.0728 25.4282 24.2857 25.4282C20.4986 25.4282 17.4286 22.3581 17.4286 18.571C17.4286 14.7839 20.4986 11.7139 24.2857 11.7139C28.0728 11.7139 31.1429 14.7839 31.1429 18.571Z" stroke="#C24B4B" stroke-width="3.33" stroke-linecap="round"/>
</svg>
