<svg width="52" height="40" viewBox="0 0 52 40" fill="none" xmlns="http://www.w3.org/2000/svg">
<path d="M44 24.2139C47.1683 26.5811 50 32.5413 50 36.2137C50 37.3578 49.1653 38.2853 48.1356 38.2853H47M35 14.5108C37.0496 13.3252 38.4286 11.1091 38.4286 8.57101C38.4286 6.0329 37.0496 3.81686 35 2.63123M3.86443 38.2853H36.707C37.7367 38.2853 38.5714 37.3578 38.5714 36.2137C38.5714 29.0222 32.5633 23.1923 20.2857 23.1923C8.00816 23.1923 2 29.0222 2 36.2137C2 37.3578 2.83473 38.2853 3.86443 38.2853ZM27.1429 8.57101C27.1429 12.3581 24.0728 15.4282 20.2857 15.4282C16.4986 15.4282 13.4286 12.3581 13.4286 8.57101C13.4286 4.78391 16.4986 1.71387 20.2857 1.71387C24.0728 1.71387 27.1429 4.78391 27.1429 8.57101Z" stroke="#C24B4B" stroke-width="3.33" stroke-linecap="round"/>
</svg>
