<svg width="60" height="60" viewBox="0 0 60 60" fill="none" xmlns="http://www.w3.org/2000/svg">
<circle opacity="0.12" cx="11" cy="11" r="4" fill="#C24B4B"/>
<circle opacity="0.12" cx="50" cy="11" r="4" fill="#C24B4B"/>
<circle opacity="0.12" cx="49" cy="30" r="4" fill="#C24B4B"/>
<circle opacity="0.12" cx="50" cy="49" r="4" fill="#C24B4B"/>
<path d="M44.4006 10.8C44.4006 13.451 46.5496 15.6 49.2006 15.6C51.8515 15.6 54.0006 13.451 54.0006 10.8C54.0006 8.14903 51.8515 6 49.2006 6C46.5496 6 44.4006 8.14903 44.4006 10.8ZM44.4006 10.8H16.4994M44.4006 49.2C44.4006 51.851 46.5496 54 49.2006 54C51.8515 54 54.0006 51.851 54.0006 49.2C54.0006 46.549 51.8515 44.4 49.2006 44.4C46.5496 44.4 44.4006 46.549 44.4006 49.2ZM44.4006 49.2H30.6006C29.2751 49.2 28.2006 48.1255 28.2006 46.8V13.2M43.5006 30H28.5006M54.0006 30C54.0006 32.651 51.8515 34.8 49.2006 34.8C46.5496 34.8 44.4006 32.651 44.4006 30C44.4006 27.349 46.5496 25.2 49.2006 25.2C51.8515 25.2 54.0006 27.349 54.0006 30ZM15.5994 10.8C15.5994 13.451 13.4504 15.6 10.7994 15.6C8.14842 15.6 5.99939 13.451 5.99939 10.8C5.99939 8.14903 8.14842 6 10.7994 6C13.4504 6 15.5994 8.14903 15.5994 10.8Z" stroke="#C24B4B" stroke-width="3.33" stroke-linecap="round"/>
</svg>
