<svg width="60" height="60" viewBox="0 0 60 60" fill="none" xmlns="http://www.w3.org/2000/svg">
<path opacity="0.12" fill-rule="evenodd" clip-rule="evenodd" d="M30 55C41.598 55 51 45.598 51 34C51 22.402 41.598 13 30 13C18.402 13 9 22.402 9 34C9 45.598 18.402 55 30 55ZM29.5 38C30.8807 38 32 36.8807 32 35.5C32 34.1193 30.8807 33 29.5 33C28.1193 33 27 34.1193 27 35.5C27 36.8807 28.1193 38 29.5 38Z" fill="#C24B4B"/>
<path d="M48.2634 9.01747C47.6131 8.36725 46.5589 8.36725 45.9087 9.01747C45.2585 9.6677 45.2585 10.7219 45.9087 11.3721L48.2634 9.01747ZM51.7529 17.2163C52.4031 17.8665 53.4573 17.8665 54.1075 17.2163C54.7577 16.5661 54.7577 15.5119 54.1075 14.8616L51.7529 17.2163ZM31.2186 24.6023C31.2186 23.6827 30.4731 22.9373 29.5536 22.9373C28.634 22.9373 27.8886 23.6827 27.8886 24.6023H31.2186ZM27.8886 33.0438C27.8886 33.9634 28.634 34.7088 29.5536 34.7088C30.4731 34.7088 31.2186 33.9634 31.2186 33.0438H27.8886ZM23.0601 3.335C22.1405 3.335 21.3951 4.08045 21.3951 5C21.3951 5.91955 22.1405 6.665 23.0601 6.665V3.335ZM35.3977 6.665C36.3173 6.665 37.0627 5.91955 37.0627 5C37.0627 4.08045 36.3173 3.335 35.3977 3.335V6.665ZM43.9607 16.8097C43.3104 17.4599 43.3104 18.5141 43.9607 19.1643C44.6109 19.8146 45.6651 19.8146 46.3153 19.1643L43.9607 16.8097ZM50.0081 13.1169L51.1854 11.9395L50.0081 13.1169ZM27.8886 24.6023V33.0438H31.2186V24.6023H27.8886ZM23.0601 6.665H35.3977V3.335H23.0601V6.665ZM46.3153 19.1643L51.1854 14.2942L48.8308 11.9395L43.9607 16.8097L46.3153 19.1643ZM49.3171 33.5714C49.3171 44.4865 40.4687 53.335 29.5536 53.335V56.665C42.3078 56.665 52.6471 46.3257 52.6471 33.5714H49.3171ZM29.5536 53.335C18.6385 53.335 9.79 44.4865 9.79 33.5714H6.46C6.46 46.3257 16.7993 56.665 29.5536 56.665V53.335ZM9.79 33.5714C9.79 22.6563 18.6385 13.8079 29.5536 13.8079V10.4779C16.7993 10.4779 6.46 20.8172 6.46 33.5714H9.79ZM29.5536 13.8079C40.4687 13.8079 49.3171 22.6563 49.3171 33.5714H52.6471C52.6471 20.8172 42.3078 10.4779 29.5536 10.4779V13.8079ZM31.1353 35.6412C31.1353 36.5148 30.4271 37.223 29.5536 37.223V40.553C32.2663 40.553 34.4653 38.3539 34.4653 35.6412H31.1353ZM29.5536 37.223C28.68 37.223 27.9718 36.5148 27.9718 35.6412H24.6418C24.6418 38.3539 26.8409 40.553 29.5536 40.553V37.223ZM27.9718 35.6412C27.9718 34.7677 28.68 34.0595 29.5536 34.0595V30.7295C26.8409 30.7295 24.6418 32.9285 24.6418 35.6412H27.9718ZM29.5536 34.0595C30.4271 34.0595 31.1353 34.7677 31.1353 35.6412H34.4653C34.4653 32.9285 32.2663 30.7295 29.5536 30.7295V34.0595ZM45.9087 11.3721L48.8308 14.2942L51.1854 11.9395L48.2634 9.01747L45.9087 11.3721ZM48.8308 14.2942L51.7529 17.2163L54.1075 14.8616L51.1854 11.9395L48.8308 14.2942Z" fill="#C24B4B"/>
</svg>
