<svg width="60" height="60" viewBox="0 0 60 60" fill="none" xmlns="http://www.w3.org/2000/svg">
<path d="M29.9993 30.2253V29.9998M52.4062 52.4064C47.667 57.1456 33.7933 50.9559 21.4186 38.5811C9.04387 26.2064 2.85409 12.3327 7.59336 7.59348C12.3326 2.85422 26.2063 9.044 38.581 21.4187C50.9557 33.7935 57.1455 47.6671 52.4062 52.4064ZM7.59384 52.4065C2.85458 47.6673 9.04435 33.7936 21.4191 21.4189C33.7938 9.04414 47.6675 2.85436 52.4067 7.59362C57.146 12.3329 50.9562 26.2065 38.5815 38.5813C26.2067 50.956 12.3331 57.1458 7.59384 52.4065Z" stroke="#C24B4B" stroke-width="3.33" stroke-linecap="round"/>
<ellipse opacity="0.12" cx="30.2467" cy="30.647" rx="11" ry="30.9258" transform="rotate(-45.2928 30.2467 30.647)" fill="#C24B4B"/>
<ellipse opacity="0.12" cx="30.2467" cy="30.6466" rx="11" ry="30.9258" transform="rotate(45.29 30.2467 30.6466)" fill="#C24B4B"/>
</svg>
