<svg width="52" height="47" viewBox="0 0 52 47" fill="none" xmlns="http://www.w3.org/2000/svg">
<path d="M46 45V27.5M26 45V20M6 45L6 35M29.5167 7.56876L42.4378 12.4142M22.9969 8.5023L9.00057 18.9996M48.6517 11.0983C50.1161 12.5628 50.1161 14.9372 48.6517 16.4017C47.1872 17.8661 44.8128 17.8661 43.3484 16.4017C41.8839 14.9372 41.8839 12.5628 43.3484 11.0983C44.8128 9.63388 47.1872 9.63388 48.6517 11.0983ZM8.65165 18.5983C10.1161 20.0628 10.1161 22.4372 8.65165 23.9017C7.18719 25.3661 4.81282 25.3661 3.34835 23.9017C1.88388 22.4372 1.88388 20.0628 3.34835 18.5983C4.81282 17.1339 7.18719 17.1339 8.65165 18.5983ZM28.6517 3.59835C30.1161 5.06282 30.1161 7.43718 28.6517 8.90165C27.1872 10.3661 24.8128 10.3661 23.3484 8.90165C21.8839 7.43718 21.8839 5.06282 23.3484 3.59835C24.8128 2.13388 27.1872 2.13388 28.6517 3.59835Z" stroke="#C24B4B" stroke-width="3.33333" stroke-linecap="round" stroke-linejoin="round"/>
</svg>
