<svg width="50" height="50" viewBox="0 0 50 50" fill="none" xmlns="http://www.w3.org/2000/svg">
<path d="M37.5 17.5L23.9142 31.0858C23.4192 31.5808 23.1717 31.8283 22.8863 31.9211C22.6352 32.0026 22.3648 32.0026 22.1137 31.9211C21.8283 31.8283 21.5808 31.5808 21.0858 31.0858L16.4142 26.4142C15.9192 25.9192 15.6717 25.6717 15.3863 25.5789C15.1352 25.4974 14.8648 25.4974 14.6137 25.5789C14.3283 25.6717 14.0808 25.9192 13.5858 26.4142L2.5 37.5M37.5 17.5H27.5M37.5 17.5V27.5M14.5 47.5H35.5C39.7004 47.5 41.8006 47.5 43.4049 46.6826C44.8161 45.9635 45.9635 44.8161 46.6826 43.4049C47.5 41.8006 47.5 39.7004 47.5 35.5V14.5C47.5 10.2996 47.5 8.19941 46.6826 6.59507C45.9635 5.18386 44.8161 4.0365 43.4049 3.31745C41.8006 2.5 39.7004 2.5 35.5 2.5H14.5C10.2996 2.5 8.19941 2.5 6.59507 3.31745C5.18386 4.0365 4.0365 5.18386 3.31745 6.59507C2.5 8.19941 2.5 10.2996 2.5 14.5V35.5C2.5 39.7004 2.5 41.8006 3.31745 43.4049C4.0365 44.8161 5.18386 45.9635 6.59507 46.6826C8.19941 47.5 10.2996 47.5 14.5 47.5Z" stroke="#C24B4B" stroke-width="3.33333" stroke-linecap="round" stroke-linejoin="round"/>
</svg>
